<?xml version="1.0" encoding="utf-8"?>
<svg id="master-artboard" viewBox="0 0 846.9869995117188 352.5429382324219" version="1.1" xmlns="http://www.w3.org/2000/svg" x="0px" y="0px" style="enable-background:new 0 0 1400 980;" width="846.9869995117188px" height="352.5429382324219px"><rect id="ee-background" x="0" y="0" width="846.9869995117188" height="352.5429382324219" style="fill: white; fill-opacity: 0; pointer-events: none;"/><defs><style id="ee-google-fonts">@import url(https://fonts.googleapis.com/css?family=Alegreya+SC:400,400italic,700,700italic,900,900italic);</style></defs><g transform="matrix(0.5906168818473816, 0, 0, 0.5906168818473816, 37.12530517578125, -64.34506225585938)"><g transform="translate(0.000000,640.000000) scale(0.100000,-0.100000)" fill="#000000" stroke="none">
<path d="M5065 4954 c-277 -32 -403 -60 -615 -136 -197 -71 -456 -222 -660&#10;-384 -176 -140 -451 -430 -770 -809 -395 -470 -612 -682 -853 -831 -222 -138&#10;-443 -221 -717 -271 -141 -25 -421 -23 -556 5 -258 52 -417 140 -480 264 -76&#10;150 -70 337 15 461 61 89 186 167 267 167 85 0 149 -79 180 -222 10 -43 22&#10;-78 27 -78 18 0 0 209 -24 285 -77 248 -256 300 -547 159 -157 -76 -253 -197&#10;-304 -381 -28 -101 -30 -338 -4 -451 112 -501 487 -885 1077 -1105 617 -231&#10;1395 -245 2479 -46 282 52 463 96 695 170 656 210 1291 540 1743 906 115 93&#10;283 261 337 336 22 31 43 56 46 57 3 0 22 -24 43 -54 48 -70 247 -266 366&#10;-361 527 -420 1357 -815 2065 -984 270 -64 747 -143 1055 -175 607 -63 1139&#10;-36 1552 80 709 198 1168 616 1294 1176 26 113 24 350 -4 451 -51 184 -147&#10;305 -304 381 -122 59 -203 80 -293 74 -79 -5 -116 -21 -164 -70 -70 -71 -109&#10;-184 -118 -340 -7 -129 6 -142 31 -30 42 195 136 261 276 196 230 -107 308&#10;-373 179 -615 -89 -167 -382 -272 -759 -273 -353 0 -675 94 -989 289 -221 137&#10;-468 376 -821 795 -536 636 -788 875 -1131 1072 -524 302 -1174 381 -1664 201&#10;-197 -73 -364 -183 -515 -340 l-100 -103 -100 103 c-282 293 -656 441 -1100&#10;435 -58 0 -118 -3 -135 -4z" style="fill: rgb(255, 255, 255);"/>
</g></g><path d="M 23.079999923706055 61.869998931884766 C 18.566667556762695 61.290000915527344 15.436666488647461 61 13.6899995803833 61 C 10.776666641235352 61 7.619999885559082 61.290000915527344 4.21999979019165 61.869998931884766 L 4.659999847412109 58.52000045776367 C 6.893333435058594 58.086666107177734 8.396666526794434 57.4466667175293 9.170000076293945 56.599998474121094 C 9.949999809265137 55.746665954589844 10.34000015258789 54.29999923706055 10.34000015258789 52.26000213623047 L 10.40999984741211 21.689998626708984 C 10.40999984741211 20.13666534423828 10.226666450500488 19.093334197998047 9.859999656677246 18.560001373291016 C 9.5 18.026668548583984 8.786666870117188 17.759998321533203 7.71999979019165 17.759998321533203 L 5.239999771118164 17.900001525878906 L 5.099999904632568 17.610000610351562 L 5.610000133514404 14.40999984741211 C 8.856666564941406 14.55666732788086 11.40333366394043 14.630001068115234 13.25 14.630001068115234 L 24.31999969482422 14.34000015258789 C 31.399999618530273 14.34000015258789 37.163333892822266 16.35333251953125 41.61000061035156 20.380001068115234 C 46.04999923706055 24.406665802001953 48.27000045776367 29.84000015258789 48.27000045776367 36.68000030517578 C 48.27000045776367 43.52666473388672 45.84333419799805 49.436668395996094 40.9900016784668 54.40999984741211 C 36.13666534423828 59.38333511352539 30.16666603088379 61.869998931884766 23.079999923706055 61.869998931884766 M 19.290000915527344 17.900001525878906 C 18.270000457763672 17.900001525878906 17.59000015258789 18.009998321533203 17.25 18.229999542236328 C 16.90999984741211 18.450000762939453 16.71666717529297 18.873332977294922 16.670000076293945 19.5 C 15.943333625793457 38.186668395996094 15.579999923706055 48.85333251953125 15.579999923706055 51.5 C 15.579999923706055 54.14666748046875 16.18666648864746 55.91666793823242 17.399999618530273 56.810001373291016 C 18.613332748413086 57.709999084472656 21.06333351135254 58.15999984741211 24.75 58.15999984741211 C 29.989999771118164 58.15999984741211 34.11666488647461 56.35333251953125 37.130001068115234 52.73999786376953 C 40.13666534423828 49.119998931884766 41.63999938964844 44.133331298828125 41.63999938964844 37.779998779296875 C 41.63999938964844 31.420000076293945 39.709999084472656 26.516666412353516 35.849998474121094 23.06999969482422 C 31.996665954589844 19.623332977294922 26.476667404174805 17.900001525878906 19.290000915527344 17.900001525878906 ZM 65.5848388671875 40.62000274658203 L 71.55484008789062 40.69000244140625 L 78.76483917236328 40.11000061035156 L 79.05484008789062 40.470001220703125 L 78.1848373413086 44.26000213623047 C 74.83817291259766 44.15999984741211 72.30150604248047 44.11000061035156 70.57483673095703 44.11000061035156 C 68.85484313964844 44.11000061035156 67.14483642578125 44.22999954223633 65.44483947753906 44.470001220703125 C 65.29817199707031 48.163333892822266 65.22483825683594 51.13666534423828 65.22483825683594 53.38999938964844 C 65.22483825683594 55.650001525878906 65.45484161376953 56.959999084472656 65.91484069824219 57.31999969482422 C 66.37483978271484 57.686668395996094 67.90483856201172 57.869998931884766 70.50483703613281 57.869998931884766 C 73.09817504882812 57.869998931884766 75.06483459472656 57.71333312988281 76.40483856201172 57.400001525878906 C 77.73817443847656 57.08000183105469 78.69483947753906 56.483333587646484 79.27484130859375 55.61000061035156 C 79.85484313964844 54.73666763305664 80.31483459472656 53.209999084472656 80.65483856201172 51.029998779296875 L 83.86483764648438 50.73999786376953 L 84.15483856201172 51.099998474121094 C 83.42817687988281 54.29999923706055 82.89483642578125 57.599998474121094 82.55484008789062 61 L 82.11483764648438 61.36000061035156 C 74.06150817871094 61.119998931884766 68.65150451660156 61 65.88484191894531 61 C 61.804840087890625 61 58.21150588989258 61.19333267211914 55.10483932495117 61.58000183105469 L 55.47483825683594 58.52000045776367 C 57.26817321777344 58.32666778564453 58.48150634765625 57.88999938964844 59.114837646484375 57.209999084472656 C 59.74150466918945 56.53666687011719 60.054840087890625 55.37333297729492 60.054840087890625 53.720001220703125 L 60.124839782714844 30.639999389648438 C 60.124839782714844 29.426666259765625 59.98150634765625 28.61333465576172 59.69483947753906 28.200000762939453 C 59.40150451660156 27.786666870117188 58.818172454833984 27.580001831054688 57.94483947753906 27.580001831054688 L 55.97483825683594 27.65999984741211 L 55.8348388671875 27.369998931884766 L 56.274837493896484 24.599998474121094 C 59.714839935302734 24.700000762939453 64.09484100341797 24.75 69.41484069824219 24.75 C 74.7281723022461 24.75 79.32483673095703 24.529998779296875 83.204833984375 24.09000015258789 L 83.42483520507812 24.450000762939453 C 82.74484252929688 27.463333129882812 82.28483581542969 30.71666717529297 82.04483795166016 34.209999084472656 L 78.54483795166016 34.5 C 78.64483642578125 33.43333435058594 78.69483947753906 32.633331298828125 78.69483947753906 32.099998474121094 C 78.69483947753906 30.299999237060547 78.2348403930664 29.196666717529297 77.31483459472656 28.790000915527344 C 76.38816833496094 28.376667022705078 74.48150634765625 28.169998168945312 71.59484100341797 28.169998168945312 C 68.70817565917969 28.169998168945312 67.07150268554688 28.276668548583984 66.6848373413086 28.490001678466797 C 66.29150390625 28.709999084472656 66.07150268554688 29.30666732788086 66.02484130859375 30.280000686645508 L 65.5848388671875 40.62000274658203 ZM 105.19467163085938 27.220001220703125 C 103.05467224121094 27.36666488647461 101.65800476074219 27.586666107177734 101.00466918945312 27.880001068115234 C 100.35133361816406 28.166667938232422 100.02467346191406 28.650001525878906 100.02467346191406 29.329999923706055 C 100.02467346191406 30.543333053588867 102.35466766357422 39.05999755859375 107.0146713256836 54.880001068115234 L 107.6646728515625 54.880001068115234 C 109.36466979980469 50.80666732788086 111.34133911132812 45.76000213623047 113.59467315673828 39.73999786376953 C 115.85467529296875 33.72666931152344 116.98467254638672 30.329999923706055 116.98467254638672 29.549999237060547 C 116.98467254638672 28.143333435058594 115.69800567626953 27.439998626708984 113.12467193603516 27.439998626708984 L 110.21466827392578 27.439998626708984 L 110.06466674804688 27.150001525878906 L 110.4346694946289 24.380001068115234 C 113.54133605957031 24.626667022705078 116.40467071533203 24.75 119.02467346191406 24.75 L 125.71467590332031 24.599998474121094 L 125.21467590332031 27.580001831054688 C 124.04800415039062 27.63333511352539 123.23467254638672 27.84000015258789 122.77467346191406 28.200000762939453 C 122.30799865722656 28.566665649414062 121.85800170898438 29.30666732788086 121.42466735839844 30.420000076293945 L 109.12467193603516 60.709999084472656 L 103.73467254638672 61.95000076293945 C 100.18800354003906 50.25 96.88800048828125 39.90999984741211 93.83467102050781 30.93000030517578 C 93.15467071533203 28.843334197998047 91.40800476074219 27.726665496826172 88.59467315673828 27.580001831054688 L 88.44467163085938 27.369998931884766 L 88.88467407226562 24.599998474121094 C 92.13800048828125 24.700000762939453 94.49134063720703 24.75 95.94467163085938 24.75 L 105.19467163085938 24.15999984741211 L 105.40467071533203 24.599998474121094 L 105.19467163085938 27.220001220703125 ZM 157.01658630371094 61.869998931884766 C 154.98324584960938 61.869998931884766 153.01991271972656 61.663333892822266 151.1265869140625 61.25 C 149.23324584960938 60.84333419799805 147.38658142089844 60.22666549682617 145.58657836914062 59.400001525878906 L 145.22657775878906 58.66999816894531 C 145.80657958984375 54.93000030517578 146.09658813476562 50.7066650390625 146.09658813476562 46 L 149.3765869140625 45.63999938964844 C 149.3765869140625 50.880001068115234 149.96990966796875 54.29999923706055 151.15658569335938 55.900001525878906 C 152.34991455078125 57.50666809082031 154.69325256347656 58.310001373291016 158.18658447265625 58.310001373291016 C 161.67991638183594 58.310001373291016 164.34991455078125 57.59333419799805 166.1965789794922 56.15999984741211 C 168.03659057617188 54.72666549682617 168.9565887451172 52.77333450317383 168.9565887451172 50.29999923706055 C 168.9565887451172 48.16666793823242 167.8665771484375 46.27333450317383 165.68658447265625 44.62000274658203 C 164.07992553710938 43.40666580200195 162.47657775878906 42.38666534423828 160.8765869140625 41.55999755859375 C 159.27658081054688 40.733333587646484 158.43991088867188 40.30999755859375 158.3665771484375 40.290000915527344 C 158.29324340820312 40.263336181640625 158.21990966796875 40.22666931152344 158.14657592773438 40.18000030517578 C 158.0732421875 40.133331298828125 157.55325317382812 39.85333251953125 156.58657836914062 39.34000015258789 C 155.61325073242188 38.833335876464844 154.5799102783203 38.25 153.48658752441406 37.59000015258789 C 152.39324951171875 36.936668395996094 151.19325256347656 36.0533332824707 149.88658142089844 34.94000244140625 C 147.31324768066406 32.79999923706055 146.02658081054688 30.25 146.02658081054688 27.290000915527344 C 146.02658081054688 23.4566650390625 147.63992309570312 20.243331909179688 150.8665771484375 17.650001525878906 C 154.09324645996094 15.049999237060547 158.05992126464844 13.75 162.76658630371094 13.75 C 166.4599151611328 13.75 170.17324829101562 14.356666564941406 173.90658569335938 15.569999694824219 L 174.1265869140625 16.009998321533203 C 173.35325622558594 19.75 172.81991577148438 23.849998474121094 172.52658081054688 28.310001373291016 L 169.68658447265625 28.599998474121094 L 169.24658203125 28.240001678466797 C 169.39324951171875 27.220001220703125 169.46658325195312 25.9566650390625 169.46658325195312 24.450000762939453 C 169.46658325195312 21.88333511352539 168.83657836914062 20.11333465576172 167.5765838623047 19.139999389648438 C 166.31658935546875 18.166667938232422 164.2065887451172 17.68000030517578 161.24658203125 17.68000030517578 C 158.27992248535156 17.68000030517578 155.93658447265625 18.349998474121094 154.21658325195312 19.689998626708984 C 152.49658203125 21.023334503173828 151.63658142089844 22.67333221435547 151.63658142089844 24.639999389648438 C 151.63658142089844 26.599998474121094 152.47325134277344 28.29666519165039 154.14657592773438 29.729999542236328 C 155.81991577148438 31.163333892822266 158.669921875 32.92333221435547 162.6965789794922 35.01000213623047 C 166.72325134277344 37.09666442871094 169.51324462890625 38.81999969482422 171.06658935546875 40.18000030517578 C 173.68658447265625 42.413333892822266 174.99658203125 44.913333892822266 174.99658203125 47.68000030517578 C 174.99658203125 51.85333251953125 173.3232421875 55.26333236694336 169.97657775878906 57.90999984741211 C 166.62991333007812 60.54999923706055 162.30992126464844 61.869998931884766 157.01658630371094 61.869998931884766 ZM 194.1479034423828 51.75 L 194.1479034423828 27.65999984741211 C 190.26123046875 27.80666732788086 187.80789184570312 28.14666748046875 186.78790283203125 28.68000030517578 C 185.674560546875 29.213333129882812 184.85122680664062 31.299999237060547 184.31790161132812 34.94000244140625 L 180.8979034423828 35.15999984741211 C 181.3845672607422 31.46666717529297 181.674560546875 27.946666717529297 181.7678985595703 24.599998474121094 L 182.347900390625 24.09000015258789 L 187.5178985595703 24.669998168945312 L 206.087890625 24.669998168945312 L 211.3979034423828 24.09000015258789 L 211.9779052734375 24.599998474121094 C 212.07789611816406 28.139999389648438 212.34457397460938 31.586666107177734 212.77789306640625 34.94000244140625 L 209.43789672851562 35.15999984741211 C 209.23789978027344 33.84666442871094 209.06790161132812 32.813331604003906 208.9279022216797 32.05999755859375 C 208.78123474121094 31.30666732788086 208.50123596191406 30.626667022705078 208.087890625 30.020000457763672 C 207.674560546875 29.413333892822266 207.35789489746094 28.990001678466797 207.1378936767578 28.75 C 206.9178924560547 28.509998321533203 206.347900390625 28.290000915527344 205.4279022216797 28.09000015258789 C 204.40789794921875 27.89666748046875 202.6378936767578 27.753334045410156 200.11788940429688 27.65999984741211 C 199.48455810546875 33.53333282470703 199.1678924560547 42.38999938964844 199.1678924560547 54.22999954223633 C 199.1678924560547 55.63666534423828 199.4345703125 56.630001068115234 199.9678955078125 57.209999084472656 C 200.50123596191406 57.79666519165039 201.37457275390625 58.09000015258789 202.587890625 58.09000015258789 L 205.7978973388672 57.939998626708984 L 206.00790405273438 58.15999984741211 L 205.49789428710938 61.220001220703125 C 201.27789306640625 61.073333740234375 198.2212371826172 61 196.32789611816406 61 L 187.6678924560547 61.290000915527344 L 188.1779022216797 58.380001068115234 C 190.94456481933594 58.186668395996094 192.6312255859375 57.72666549682617 193.23789978027344 57 C 193.8445587158203 56.266666412353516 194.1479034423828 54.516666412353516 194.1479034423828 51.75 ZM 250.49270629882812 61.150001525878906 C 247.53269958496094 61.04999923706055 245.3227081298828 61 243.86270141601562 61 C 241.58270263671875 61 238.52603149414062 61.16999816894531 234.6927032470703 61.5099983215332 L 234.4727020263672 61.150001525878906 L 234.6927032470703 58.52000045776367 C 236.73269653320312 58.380001068115234 238.1027069091797 58.163333892822266 238.80270385742188 57.869998931884766 C 239.50936889648438 57.57666778564453 239.86270141601562 57.06666564941406 239.86270141601562 56.34000015258789 C 239.86270141601562 55.61333465576172 239.6927032470703 54.813331604003906 239.3527069091797 53.939998626708984 L 237.6027069091797 48.33000183105469 C 236.6360321044922 48.28333282470703 235.03604125976562 48.26000213623047 232.80270385742188 48.26000213623047 C 230.56936645507812 48.26000213623047 228.06936645507812 48.40666580200195 225.30270385742188 48.70000076293945 C 223.6027069091797 53.21333312988281 222.75270080566406 55.686668395996094 222.75270080566406 56.119998931884766 C 222.75270080566406 57.58000183105469 223.8927001953125 58.310001373291016 226.17269897460938 58.310001373291016 L 229.30270385742188 58.310001373291016 L 229.522705078125 58.599998474121094 L 229.08270263671875 61.36000061035156 C 226.12271118164062 61.119998931884766 223.33270263671875 61 220.71270751953125 61 L 214.01271057128906 61.150001525878906 L 214.45269775390625 58.15999984741211 C 215.51937866210938 58.01333236694336 216.36936950683594 57.63666534423828 217.00270080566406 57.029998779296875 C 217.6360321044922 56.42333221435547 218.2660369873047 55.393333435058594 218.8927001953125 53.939998626708984 L 230.3227081298828 25.040000915527344 L 235.49270629882812 24.09000015258789 L 236.00270080566406 24.15999984741211 C 239.4027099609375 36.393333435058594 242.4860382080078 46.41666793823242 245.25270080566406 54.22999954223633 C 245.73269653320312 55.63666534423828 246.349365234375 56.619998931884766 247.1027069091797 57.18000030517578 C 247.8560333251953 57.7400016784668 249.0593719482422 58.09000015258789 250.71270751953125 58.22999954223633 L 250.8527069091797 58.52000045776367 L 250.49270629882812 61.150001525878906 M 231.41270446777344 45.279998779296875 C 233.11270141601562 45.279998779296875 234.8860321044922 45.18000030517578 236.73269653320312 44.97999954223633 L 232.29270935058594 30.860000610351562 L 231.78269958496094 30.860000610351562 L 226.46270751953125 45.279998779296875 L 231.41270446777344 45.279998779296875 ZM 284.2669372558594 59.400001525878906 C 280.7735900878906 60.90666580200195 276.45361328125 61.65999984741211 271.30694580078125 61.65999984741211 C 266.1602783203125 61.65999984741211 261.9869384765625 60.08000183105469 258.78692626953125 56.91999816894531 C 255.58026123046875 53.766666412353516 253.9769287109375 49.36333465576172 253.9769287109375 43.709999084472656 C 253.9769287109375 38.05666732788086 255.93359375 33.37333297729492 259.846923828125 29.65999984741211 C 263.75360107421875 25.946666717529297 268.76361083984375 24.09000015258789 274.8769226074219 24.09000015258789 C 277.9836120605469 24.09000015258789 281.5269470214844 24.549999237060547 285.5069274902344 25.470001220703125 L 285.79693603515625 25.90999984741211 C 285.0169372558594 28.823333740234375 284.5069274902344 32.12333297729492 284.2669372558594 35.80999755859375 L 280.6269226074219 36.029998779296875 C 280.7269287109375 35.05666732788086 280.7769470214844 34.11000061035156 280.7769470214844 33.19000244140625 C 280.7769470214844 29.790000915527344 278.05694580078125 28.09000015258789 272.616943359375 28.09000015258789 C 268.83026123046875 28.09000015258789 265.846923828125 29.34000015258789 263.66693115234375 31.84000015258789 C 261.4802551269531 34.34000015258789 260.3869323730469 37.89666748046875 260.3869323730469 42.51000213623047 C 260.3869323730469 47.116668701171875 261.5402526855469 50.85333251953125 263.846923828125 53.720001220703125 C 266.1535949707031 56.586666107177734 269.2469482421875 58.02000045776367 273.1269226074219 58.02000045776367 C 278.1269226074219 58.02000045776367 281.2835998535156 55.1533317565918 282.596923828125 49.41999816894531 L 286.2369384765625 49.130001068115234 C 285.4569396972656 52.72333526611328 284.9469299316406 55.95333480834961 284.7069396972656 58.81999969482422 L 284.2669372558594 59.400001525878906 ZM 327.3650207519531 54.22999954223633 C 327.3650207519531 55.78333282470703 327.5350036621094 56.813331604003906 327.875 57.31999969482422 C 328.21502685546875 57.83333206176758 328.8916931152344 58.09000015258789 329.905029296875 58.09000015258789 L 332.45501708984375 57.939998626708984 L 332.6750183105469 58.22999954223633 L 332.09503173828125 61.150001525878906 C 328.9416809082031 61.04999923706055 326.3916931152344 61 324.44500732421875 61 L 317.1650085449219 61.06999969482422 L 317.7550048828125 58.15999984741211 C 319.54833984375 58.15999984741211 320.7350158691406 57.78333282470703 321.31500244140625 57.029998779296875 C 321.90167236328125 56.27666473388672 322.19500732421875 54.73666763305664 322.19500732421875 52.40999984741211 L 322.19500732421875 44.26000213623047 C 318.308349609375 44.2066650390625 315.5183410644531 44.18000030517578 313.82501220703125 44.18000030517578 L 304.2850036621094 44.77000045776367 L 304.06500244140625 54.22999954223633 C 304.06500244140625 55.78333282470703 304.2350158691406 56.82666778564453 304.57501220703125 57.36000061035156 C 304.9150085449219 57.893333435058594 305.5950012207031 58.15999984741211 306.6150207519531 58.15999984741211 L 309.1650085449219 57.939998626708984 L 309.3050231933594 58.22999954223633 L 308.7950134277344 61.150001525878906 C 306.4683532714844 61.04999923706055 304.4916687011719 61 302.8650207519531 61 C 301.23834228515625 61 299.35833740234375 61.073333740234375 297.2250061035156 61.220001220703125 C 295.08502197265625 61.36666488647461 293.9916687011719 61.51333236694336 293.94500732421875 61.65999984741211 L 294.31500244140625 58.66999816894531 C 296.10833740234375 58.33000183105469 297.3216857910156 57.83333206176758 297.95501708984375 57.18000030517578 C 298.5816955566406 56.52666473388672 298.89501953125 55.39666748046875 298.89501953125 53.790000915527344 L 298.96502685546875 30.639999389648438 C 298.96502685546875 29.426666259765625 298.8216857910156 28.61333465576172 298.5350036621094 28.200000762939453 C 298.2416687011719 27.786666870117188 297.6583557128906 27.580001831054688 296.7850036621094 27.580001831054688 L 294.81500244140625 27.65999984741211 L 294.6050109863281 27.369998931884766 L 295.0350036621094 24.599998474121094 C 297.9950256347656 24.700000762939453 300.2516784667969 24.75 301.8050231933594 24.75 L 308.875 24.240001678466797 L 308.57501220703125 27.220001220703125 C 306.9283447265625 27.459999084472656 305.8983459472656 27.849998474121094 305.4850158691406 28.389999389648438 C 305.0716857910156 28.92333221435547 304.818359375 30.136667251586914 304.7250061035156 32.029998779296875 L 304.3550109863281 40.83000183105469 L 313.82501220703125 40.90999984741211 C 316.3916931152344 40.90999984741211 319.1816711425781 40.73999786376953 322.19500732421875 40.400001525878906 L 322.2650146484375 30.639999389648438 C 322.2650146484375 29.426666259765625 322.11834716796875 28.61333465576172 321.82501220703125 28.200000762939453 C 321.5383605957031 27.786666870117188 320.9583435058594 27.580001831054688 320.08502197265625 27.580001831054688 L 318.0450134277344 27.65999984741211 L 317.89501953125 27.369998931884766 L 318.33502197265625 24.599998474121094 C 318.33502197265625 24.700000762939453 320.42169189453125 24.75 324.59503173828125 24.75 L 332.1650085449219 24.240001678466797 L 331.94500732421875 27.220001220703125 C 330.44500732421875 27.413333892822266 329.4516906738281 27.71666717529297 328.96502685546875 28.130001068115234 C 328.47833251953125 28.5433349609375 328.211669921875 29.30666732788086 328.1650085449219 30.420000076293945 C 327.6316833496094 39.84000015258789 327.3650207519531 47.77666473388672 327.3650207519531 54.22999954223633 ZM 350.9410095214844 40.62000274658203 L 356.9110107421875 40.69000244140625 L 364.1210021972656 40.11000061035156 L 364.4110107421875 40.470001220703125 L 363.541015625 44.26000213623047 C 360.1943359375 44.15999984741211 357.6576843261719 44.11000061035156 355.9309997558594 44.11000061035156 C 354.21099853515625 44.11000061035156 352.5010070800781 44.22999954223633 350.8009948730469 44.470001220703125 C 350.6543273925781 48.163333892822266 350.58099365234375 51.13666534423828 350.58099365234375 53.38999938964844 C 350.58099365234375 55.650001525878906 350.8110046386719 56.959999084472656 351.27099609375 57.31999969482422 C 351.73101806640625 57.686668395996094 353.2610168457031 57.869998931884766 355.8609924316406 57.869998931884766 C 358.454345703125 57.869998931884766 360.4210205078125 57.71333312988281 361.7610168457031 57.400001525878906 C 363.0943298339844 57.08000183105469 364.0509948730469 56.483333587646484 364.6310119628906 55.61000061035156 C 365.21099853515625 54.73666763305664 365.6710205078125 53.209999084472656 366.0110168457031 51.029998779296875 L 369.22100830078125 50.73999786376953 L 369.5110168457031 51.099998474121094 C 368.7843322753906 54.29999923706055 368.2510070800781 57.599998474121094 367.9110107421875 61 L 367.47100830078125 61.36000061035156 C 359.41766357421875 61.119998931884766 354.0076599121094 61 351.2409973144531 61 C 347.1610107421875 61 343.56768798828125 61.19333267211914 340.46099853515625 61.58000183105469 L 340.83099365234375 58.52000045776367 C 342.62432861328125 58.32666778564453 343.8376770019531 57.88999938964844 344.47100830078125 57.209999084472656 C 345.0976867675781 56.53666687011719 345.4110107421875 55.37333297729492 345.4110107421875 53.720001220703125 L 345.48101806640625 30.639999389648438 C 345.48101806640625 29.426666259765625 345.3376770019531 28.61333465576172 345.0509948730469 28.200000762939453 C 344.7576599121094 27.786666870117188 344.1743469238281 27.580001831054688 343.3009948730469 27.580001831054688 L 341.33099365234375 27.65999984741211 L 341.1910095214844 27.369998931884766 L 341.6310119628906 24.599998474121094 C 345.0710144042969 24.700000762939453 349.4510192871094 24.75 354.77099609375 24.75 C 360.0843505859375 24.75 364.6809997558594 24.529998779296875 368.5610046386719 24.09000015258789 L 368.781005859375 24.450000762939453 C 368.10101318359375 27.463333129882812 367.6409912109375 30.71666717529297 367.4010009765625 34.209999084472656 L 363.9010009765625 34.5 C 364.0010070800781 33.43333435058594 364.0509948730469 32.633331298828125 364.0509948730469 32.099998474121094 C 364.0509948730469 30.299999237060547 363.59100341796875 29.196666717529297 362.6710205078125 28.790000915527344 C 361.74432373046875 28.376667022705078 359.8376770019531 28.169998168945312 356.9510192871094 28.169998168945312 C 354.0643310546875 28.169998168945312 352.42767333984375 28.276668548583984 352.041015625 28.490001678466797 C 351.6476745605469 28.709999084472656 351.42767333984375 29.30666732788086 351.3810119628906 30.280000686645508 L 350.9410095214844 40.62000274658203 Z" transform="matrix(1.923076868057251, 0, 0, 1.923076868057251, 60.10845947265625, 204.27670288085938)" style="fill: rgb(255, 255, 255); white-space: pre; color: rgb(51, 51, 51);"/></svg>